<svg xmlns="http://www.w3.org/2000/svg" viewBox="0 0 88.55 85.04"><defs><style>.cls-1{fill:#fff;}</style></defs><g id="Слой_2" data-name="Слой 2"><g id="Слой_1-2" data-name="Слой 1"><path class="cls-1" d="M86.06,38.13H76.78A33,33,0,0,0,32,8.27a35,35,0,0,1,54,29.48v.38M71.32,65a35,35,0,0,1-48,12.81l-.3-.17,5.25-9.06a32.83,32.83,0,0,0,15.38,3.82A33.19,33.19,0,0,0,76,46.59,34.84,34.84,0,0,1,71.32,65M7.19,51.46A35.13,35.13,0,0,1,20,3.54l.36-.2,4.88,8.42A33.1,33.1,0,0,0,25,66.61,34.8,34.8,0,0,1,7.19,51.46M46,18.89l.55-10.14a30.37,30.37,0,0,1,15.41,6l-6.38,7.86,1.94,1.57,6.38-7.86a30.69,30.69,0,0,1,9,13.85l-9.83,2.62.64,2.42,9.81-2.62a30,30,0,0,1-.89,16.51l-9.42-3.63-.9,2.33,9.43,3.63A30.72,30.72,0,0,1,61.37,64.24l-5.65-8.72-2.1,1.35,5.65,8.72a30.43,30.43,0,0,1-15.58,4.3l-.38,0,.57-10.64-2.5-.13-.57,10.64a30.36,30.36,0,0,1-15.41-6l6.76-8.33-1.94-1.57L23.46,62.2a30.69,30.69,0,0,1-9-13.85L24.8,45.58l-.64-2.42L13.81,45.93a30.06,30.06,0,0,1-.76-6.68,30.49,30.49,0,0,1,1.65-9.83l9.89,3.81.9-2.33-9.91-3.82A30.9,30.9,0,0,1,26,14.26L31.69,23l2.09-1.36-5.67-8.75a30.39,30.39,0,0,1,15.58-4.3l.39,0-.54,10.13ZM51,.16a37.38,37.38,0,0,0-24.38,9L21.3,0,20.23.56c-.3.15-.59.32-.89.48l-.58.32A37.55,37.55,0,0,0,25,69.3L19.7,78.46l1,.64a17,17,0,0,0,1.47.89A37.55,37.55,0,0,0,77.87,40.63H88.41l.09-1.15c0-.56,0-1.14,0-1.73A37.62,37.62,0,0,0,51,.16"/><path class="cls-1" d="M53.74,39.41a10,10,0,1,1-10-10,10,10,0,0,1,10,10M39.48,18.88l-2.41.65,2.23,8.25A12.29,12.29,0,0,0,35,30.6l-6.64-5.35-1.56,1.94,6.62,5.34a12.29,12.29,0,0,0-1.9,4.85L23,37l-.12,2.49,8.41.42A12.39,12.39,0,0,0,32.62,45l-7,4.56L27,51.64l7-4.54a12.57,12.57,0,0,0,4.12,3.4l-2.94,7.71,2.33.89,2.93-7.69a12.47,12.47,0,0,0,3.37.48,12.21,12.21,0,0,0,2-.18l2.14,7.91L50.32,59l-2.14-7.91a12.34,12.34,0,0,0,4.51-3l6.39,5.15,1.56-1.94-6.4-5.17a12.28,12.28,0,0,0,1.86-5l8.27.42L64.5,39l-8.31-.41a12.19,12.19,0,0,0-1.44-5.1l7-4.59L60.4,26.85l-7,4.6a12.65,12.65,0,0,0-4.13-3.23l3-7.93-2.34-.89-3,8a12.43,12.43,0,0,0-3.13-.41,12.6,12.6,0,0,0-2,.18Z"/></g></g></svg>